<?xml version="1.0" encoding="utf-8"?>
<!-- Generator: Adobe Illustrator 15.1.0, SVG Export Plug-In . SVG Version: 6.00 Build 0)  -->
<!DOCTYPE svg PUBLIC "-//W3C//DTD SVG 1.1//EN" "http://www.w3.org/Graphics/SVG/1.1/DTD/svg11.dtd">
<svg version="1.1" id="레이어_1" xmlns:sketch="http://www.bohemiancoding.com/sketch/ns"
	 xmlns="http://www.w3.org/2000/svg" xmlns:xlink="http://www.w3.org/1999/xlink" x="0px" y="0px" width="28.75px"
	 height="28.583px" viewBox="1.667 1.167 28.75 28.583" enable-background="new 1.667 1.167 28.75 28.583" xml:space="preserve">
<title></title>
<desc></desc>
<path id="box" fill="#6CAEF1" d="M3.5,12l5-8h15l5,8v1v15h-25V12L3.5,12z M27.275,12L22.9,5H9.1l-4.375,7H27.275L27.275,12z
	 M13.498,18c-1.104,0-1.998,0.888-1.998,2c0,1.104,0.896,2,1.998,2h5.004c1.104,0,1.998-0.888,1.998-2c0-1.104-0.896-2-1.998-2
	H13.498L13.498,18z"/>
<g>
	<path fill="#248AF1" d="M14.797,12.015l1.074-9.002c0.037-0.31,0.32-0.533,0.63-0.496l9.682,1.155
		c0.31,0.037,0.532,0.321,0.495,0.63l-0.919,7.713"/>
</g>
<g>
	<line fill="#24CCF1" x1="17.094" y1="4.693" x2="25.031" y2="5.683"/>
	
		<rect x="17.063" y="4.188" transform="matrix(0.9923 0.1238 -0.1238 0.9923 0.8043 -2.5675)" fill="#FFFFFF" width="7.999" height="2"/>
</g>
<g>
	<path fill="#21B5D4" d="M18.001,12.009c0.476-0.757,0.751-1.653,0.751-2.613c0-2.717-2.203-4.919-4.919-4.919
		c-2.716,0-4.919,2.202-4.919,4.919c0,0.949,0.293,1.884,0.758,2.635"/>
	<path fill="#FFFFFF" d="M15.584,12.023c0.847-0.566,1.406-1.531,1.406-2.627c0-1.744-1.414-3.157-3.157-3.157
		s-3.157,1.414-3.157,3.157c0,1.09,0.552,2.05,1.392,2.618"/>
</g>
<polygon fill="#157EFB" points="27.646,24.521 27.646,27.188 27.646,27.188 4.438,27.188 4.438,24.521 27.646,24.521 "/>
<path fill="#4A8AE8" d="M7.624,12.02L4.374,5.47C3.995,4.708,4.306,3.783,5.069,3.404l0,0C5.832,3.026,6.756,3.337,7.135,4.1
	l3.929,7.915"/>
</svg>
