<?xml version="1.0" encoding="utf-8"?>
<!-- Generator: Adobe Illustrator 15.1.0, SVG Export Plug-In . SVG Version: 6.00 Build 0)  -->
<!DOCTYPE svg PUBLIC "-//W3C//DTD SVG 1.1//EN" "http://www.w3.org/Graphics/SVG/1.1/DTD/svg11.dtd">
<svg version="1.1" id="레이어_1" xmlns:sketch="http://www.bohemiancoding.com/sketch/ns"
	 xmlns="http://www.w3.org/2000/svg" xmlns:xlink="http://www.w3.org/1999/xlink" x="0px" y="0px" width="28.75px"
	 height="28.583px" viewBox="0 0 28.75 28.583" enable-background="new 0 0 28.75 28.583" xml:space="preserve">
<title></title>
<desc></desc>
<polygon fill="#6CAEF1" points="2.167,11.042 7.167,3.042 22.167,3.042 27.167,11.042 27.167,12.042 27.167,27.042 2.167,27.042 
	2.167,11.042 "/>
<polygon fill="#FFFFFF" points="25.942,11.042 21.567,4.042 7.767,4.042 3.392,11.042 25.942,11.042 "/>
<path fill="#FFFFFF" d="M12.165,17.042c-1.104,0-1.998,0.888-1.998,2c0,1.104,0.896,2,1.998,2h5.004c1.104,0,1.998-0.889,1.998-2
	c0-1.104-0.896-2-1.998-2H12.165L12.165,17.042z"/>
<g>
	<path fill="#248AF1" d="M13.464,11.057l1.074-9.002c0.037-0.31,0.32-0.533,0.63-0.496l9.683,1.155
		c0.31,0.037,0.531,0.321,0.494,0.63l-0.919,7.713"/>
</g>
<g>
	<line fill="none" x1="15.761" y1="3.735" x2="23.698" y2="4.725"/>
	
		<rect x="15.729" y="3.23" transform="matrix(-0.9923 -0.1238 0.1238 -0.9923 38.7826 10.8702)" fill="#FFFFFF" width="7.999" height="2"/>
</g>
<g>
	<path fill="#21B5D4" d="M16.668,11.051c0.476-0.757,0.751-1.653,0.751-2.613c0-2.717-2.203-4.919-4.919-4.919
		S7.581,5.721,7.581,8.438c0,0.949,0.293,1.884,0.758,2.635"/>
	<path fill="#FFFFFF" d="M14.251,11.065c0.848-0.566,1.406-1.531,1.406-2.627c0-1.744-1.414-3.157-3.157-3.157
		S9.343,6.695,9.343,8.438c0,1.09,0.552,2.05,1.392,2.618"/>
</g>
<polygon fill="#157EFB" points="26.313,23.563 26.313,26.23 26.313,26.23 3.105,26.23 3.105,23.563 "/>
<path fill="#4A8AE8" d="M6.291,11.062l-3.25-6.55C2.662,3.75,2.973,2.825,3.736,2.446l0,0c0.763-0.378,1.687-0.067,2.066,0.696
	l3.929,7.915"/>
</svg>
